<svg width="32" height="32" viewBox="0 0 32 32" fill="none" xmlns="http://www.w3.org/2000/svg">
<g id="Icon - Star">
<path id="Object" d="M14.7036 3.4173C15.3027 2.41656 16.6972 2.41657 17.2963 3.4173L20.8146 9.29383C21.0245 9.6444 21.3562 9.89631 21.74 9.99663L28.1739 11.6783C29.2695 11.9647 29.7005 13.351 28.9751 14.2559L24.7156 19.5694C24.4615 19.8864 24.3348 20.294 24.3621 20.7066L24.8202 27.6225C24.8983 28.8002 23.7701 29.657 22.7227 29.2155L16.5719 26.6229C16.205 26.4682 15.795 26.4682 15.428 26.6229L9.27727 29.2155C8.22984 29.657 7.10166 28.8002 7.17968 27.6225L7.63782 20.7066C7.66515 20.294 7.53845 19.8864 7.28434 19.5694L3.02483 14.2559C2.29946 13.351 2.73039 11.9647 3.82604 11.6783L10.2599 9.99663C10.6438 9.89631 10.9755 9.6444 11.1853 9.29383L14.7036 3.4173Z" fill="#7646FE"/>
</g>
</svg>
