<svg width="120" height="120" viewBox="0 0 120 120" fill="none" xmlns="http://www.w3.org/2000/svg">
<g id="Image">
<rect id="Bg" width="120" height="120" rx="12" fill="#FFB184"/>
<g id="Pencil">
<path id="Object 5" d="M68.6059 16.4682C69.721 14.0005 72.6255 12.904 75.0932 14.0191L83.4711 17.805C85.9388 18.9201 87.0353 21.8245 85.9202 24.2923L78.6009 40.4895L61.2866 32.6654L68.6059 16.4682Z" fill="white"/>
<path id="Object 4" d="M64.0629 26.5217L81.3771 34.3458L54.2427 94.393L41.2279 102.609C40.484 103.078 39.5023 102.635 39.3632 101.766L36.9284 86.5689L64.0629 26.5217Z" fill="#343434"/>
<path id="Object 3" d="M81.3767 34.346L64.0624 26.522L36.928 86.5692L38.5765 96.8587C39.628 97.0328 40.7635 97.3752 41.9012 97.8893C43.2328 98.4911 44.386 99.246 45.2779 100.052L54.2423 94.3932L81.3767 34.346Z" fill="white"/>
<path id="Object 2" d="M82.8917 30.9942C84.0068 28.5264 82.9103 25.622 80.4426 24.5069L72.0648 20.721C69.597 19.6059 66.6926 20.7024 65.5774 23.1701L37.7653 84.7169C40.114 84.2374 43.7902 84.6953 45.8139 89.2315C47.6619 88.238 51.9695 87.6532 54.9436 92.8421L82.8917 30.9942Z" fill="#7646FE"/>
<path id="Object 1" d="M76.2534 22.6137L46.2417 89.0283C46.0876 89.0927 45.9445 89.1609 45.8137 89.2312C45.6872 88.9478 45.5543 88.6802 45.4156 88.4278L75.3422 22.2019L76.2534 22.6137Z" fill="#5523E4"/>
</g>
</g>
</svg>
